HIERARCHY
ROOT Hips
{
  OFFSET 267.745 86.9975 -272.335
  CHANNELS 6 Xposition Yposition Zposition Zrotation Xrotation Yrotation
  JOINT LeftUpLeg
  {
    OFFSET 8.64259 1.95398 -2.38835
    CHANNELS 3 Zrotation Xrotation Yrotation
    JOINT LeftLeg
    {
      OFFSET 43.7702 0 0
      CHANNELS 3 Zrotation Xrotation Yrotation
      JOINT LeftFoot
      {
        OFFSET 40.6238 0 0
        CHANNELS 3 Zrotation Xrotation Yrotation
        JOINT LeftToeBase
        {
          OFFSET 12.7242 0 0
          CHANNELS 3 Zrotation Xrotation Yrotation
          End Site
          {
            OFFSET 0 0 0
          }
        }
      }
    }
  }
  JOINT RightUpLeg
  {
    OFFSET -8.2249 1.95398 -2.59336
    CHANNELS 3 Zrotation Xrotation Yrotation
    JOINT RightLeg
    {
      OFFSET 43.5653 0 0
      CHANNELS 3 Zrotation Xrotation Yrotation
      JOINT RightFoot
      {
        OFFSET 40.6238 0 0
        CHANNELS 3 Zrotation Xrotation Yrotation
        JOINT RightToeBase
        {
          OFFSET 12.7242 0 0
          CHANNELS 3 Zrotation Xrotation Yrotation
          End Site
          {
            OFFSET 0 0 0
          }
        }
      }
    }
  }
  JOINT Spine
  {
    OFFSET 0.165834 0.87714 6.61349
    CHANNELS 3 Zrotation Xrotation Yrotation
    JOINT Spine1
    {
      OFFSET 7.38963 1.71661e-005 0
      CHANNELS 3 Zrotation Xrotation Yrotation
      JOINT Spine2
      {
        OFFSET 11.9445 1.14441e-005 0
        CHANNELS 3 Zrotation Xrotation Yrotation
        JOINT Spine3
        {
          OFFSET 14.7254 4.19617e-005 0
          CHANNELS 3 Zrotation Xrotation Yrotation
          JOINT Spine4
          {
            OFFSET 10.9679 0 0
            CHANNELS 3 Zrotation Xrotation Yrotation
            JOINT RightShoulder
            {
              OFFSET 2.46616 -1.6653 3.69651
              CHANNELS 3 Zrotation Xrotation Yrotation
              JOINT RightArm
              {
                OFFSET 13.0012 0 0
                CHANNELS 3 Zrotation Xrotation Yrotation
                JOINT RightForeArm
                {
                  OFFSET 28.7848 1.52588e-005 0
                  CHANNELS 3 Zrotation Xrotation Yrotation
                  JOINT RightHand
                  {
                    OFFSET 26.5688 1.52588e-005 0
                    CHANNELS 3 Zrotation Xrotation Yrotation
                    End Site
                    {
                      OFFSET 0 0 0
                    }
                  }
                }
              }
            }
            JOINT LeftShoulder
            {
              OFFSET 2.38034 -1.29275 -3.7523
              CHANNELS 3 Zrotation Xrotation Yrotation
              JOINT LeftArm
              {
                OFFSET 16.3182 6.10352e-005 0
                CHANNELS 3 Zrotation Xrotation Yrotation
                JOINT LeftForeArm
                {
                  OFFSET 27.0901 0 0
                  CHANNELS 3 Zrotation Xrotation Yrotation
                  JOINT LeftHand
                  {
                    OFFSET 24.5451 1.52588e-005 0
                    CHANNELS 3 Zrotation Xrotation Yrotation
                    End Site
                    {
                      OFFSET 0 0 0
                    }
                  }
                }
              }
            }
            JOINT Neck
            {
              OFFSET 5.0226 -0.0266342 0
              CHANNELS 3 Zrotation Xrotation Yrotation
              JOINT Head
              {
                OFFSET 6.69364 2.86102e-005 0
                CHANNELS 3 Zrotation Xrotation Yrotation
                End Site
                {
                  OFFSET 0 0 0
                }
              }
            }
          }
        }
      }
    }
  }
}
MOTION
Frames:	15
Frame Time:	0.0416667
-9.19174 72.0146 45.0786 103.74 -14.2452 80.7118 178.85 32.4818 106.508 -53.523 23.9144 5.9941 51.2641 -4.63426 -2.51562 62.6713 -1.73516 11.3303 173.987 47.0876 90.7262 -99.5977 -21.5971 -2.58086 56.7504 -1.5502 -8.46933 50.4006 -3.52001 17.2444 -0.139504 10.653 -89.303 5.56511 0.0121527 1.36608 -6.10657 0.0722933 1.3642 -28.6362 -0.398917 1.30659 -8.62355 -0.398922 1.30659 100.76 -49.7156 -84.3679 20.3561 -21.4711 -10.5912 -20.5874 5.04872 -74.776 -6.85428 0.0622577 -6.71774 -86.4574 -42.6802 82.5853 -6.28092 -9.05779 -27.9754 4.82781 15.0566 -20.2323 4.52321 -0.414203 -9.60437 -6.50979 -16.7072 -8.3038 -2.09336 -16.3763 -27.0069 
-4.46196 72.8197 39.4709 100.25 -20.7545 80.5259 -177.67 33.9119 105.436 -61.4963 25.0676 4.16205 62.2446 2.94674 1.67239 62.3986 -1.15089 14.5546 164.306 51.8614 93.7663 -98.6604 -21.3461 -1.21356 60.0071 -0.313002 1.03872 45.7514 -3.38615 12.3087 -0.33961 11.5973 -88.9913 3.6773 -0.274371 1.9741 -7.99513 -0.187253 1.98426 -30.5201 -0.854882 1.80049 -10.5075 -0.854923 1.80046 100.748 -51.977 -84.3271 22.3209 -20.2783 -15.9612 -25.7699 8.81058 -86.6301 -7.3944 0.0389084 -6.21189 -88.8948 -42.4068 78.5224 -9.43066 -14.408 -42.2367 1.31885 18.6902 -1.33037 6.72454 -0.480746 -9.27208 4.56276 -16.1679 -10.2291 -0.835666 -14.7123 -22.6969 
-0.963636 74.2286 36.2905 91.588 -19.4104 77.5074 -178.534 38.6018 102.026 -60.6453 24.3584 3.40872 67.3105 8.03913 5.82915 62.3214 -0.850717 16.239 139.929 56.6297 110.234 -89.9697 -20.5535 3.15271 60.4428 -2.12207 -3.82452 57.4292 -4.67377 14.1956 -0.618438 11.7416 -89.0396 3.39339 -0.85325 1.87367 -8.27868 -0.769945 1.90938 -30.8082 -1.37686 1.53073 -10.7955 -1.37685 1.53072 100.474 -55.8292 -84.6313 22.5475 -16.7031 -13.0168 -20.116 6.21446 -82.2628 -14.519 -0.248898 -3.26918 -91.0135 -42.2574 75.0196 -18.1164 -10.8705 -62.953 2.92749 20.6006 -0.922512 5.90805 -0.435145 -9.11596 11.6417 -16.6538 -9.81151 0.590531 -14.8012 -21.393 
3.20948 76.7689 35.6814 87.5794 -18.0047 73.2034 -178.685 36.8439 96.2921 -56.1789 21.8329 2.8366 67.4256 8.62038 6.66159 63.7719 -0.955644 15.4838 137.76 58.0554 110.096 -82.588 -15.3598 5.34418 62.7264 -3.25544 -2.7499 57.4223 -4.4003 15.4083 -0.983015 12.1137 -89.135 2.65529 -1.62458 1.66818 -9.0158 -1.54961 1.73803 -31.5548 -2.05082 1.10277 -11.5421 -2.05082 1.10276 99.3549 -57.6602 -86.1696 21.1131 -14.3081 -9.64083 -8.471 -0.198048 -66.3807 -22.9801 -0.935227 -0.556566 -92.4497 -40.4403 72.1137 -21.4893 -0.528901 -75.0438 9.36928 27.0317 -18.4144 4.09028 -0.414536 -10.1436 18.4795 -16.7017 -4.39184 0.830787 -15.821 -22.0687 
9.35318 79.0367 38.0461 82.8969 -22.1835 68.7646 -174.806 29.884 94.3083 -48.392 22.2178 1.14006 69.24 9.23088 5.19665 65.768 -0.634677 16.728 147.202 57.0735 103.448 -76.7593 -11.6385 5.35223 58.8553 1.068 0.649109 44.6379 -2.9813 16.0045 -1.0675 11.7849 -89.2302 3.31268 -1.82648 1.49517 -8.35791 -1.75895 1.57409 -30.9006 -2.19138 0.876976 -10.8879 -2.19139 0.876974 97.4856 -56.7083 -88.9032 24.4298 -16.8588 -1.16434 -2.77598 0.794694 -54.2761 -21.9544 -0.671393 -1.74362 -91.2812 -40.537 74.0994 -15.9895 7.65291 -72.6063 16.0366 19.5575 -44.7049 6.6123 -0.582903 -10.6763 19.3136 -15.5297 1.07938 -0.410479 -16.0187 -22.1763 
16.8357 80.2136 43.9057 76.9463 -32.118 65.6303 -178.476 26.9425 97.5207 -54.3386 18.5818 3.77201 58.6862 -1.09686 -9.26089 74.7644 -0.176343 17.1527 155.058 46.9604 100.709 -71.3503 -14.938 6.88339 65.2768 -5.09468 -3.14894 40.3955 -2.5064 21.5754 -0.664441 11.0958 -89.4048 4.68632 -1.08417 1.18093 -6.98476 -1.03114 1.22748 -29.5213 -1.38893 0.800502 -9.50861 -1.38893 0.800496 95.9705 -56.1532 -91.1346 28.5692 -18.3305 2.85575 13.6587 13.6865 -46.0711 -17.3014 -0.239521 -3.64381 -90.0781 -46.0188 77.461 -20.1792 8.06848 -52.3392 13.3239 19.4042 -39.0117 7.1312 -0.619083 -10.7221 17.1663 -13.557 0.257829 -1.75281 -13.5699 -18.0617 
23.7964 80.0979 51.2169 73.6624 -45.7161 63.2143 171.667 31.9256 96.6562 -79.2151 16.5125 5.41003 52.3898 -1.38863 8.27576 62.525 -1.65902 12.0771 162.573 36.1715 98.1235 -70.6352 -16.6277 5.59924 64.6629 -1.98867 1.12732 45.1999 -2.74329 21.9653 -0.210162 11.1872 -89.6684 4.49914 -0.284637 0.652967 -7.17202 -0.25564 0.664845 -29.7057 -0.467722 0.53723 -9.69308 -0.467713 0.537243 96.3081 -56.406 -90.6219 25.8646 -14.1942 -7.0604 11.8202 11.6427 -43.2992 -17.3038 -0.113383 -4.50286 -87.9943 -54.2972 82.2316 -19.505 -3.30797 -28.8588 7.09113 28.8882 -16.8323 9.1504 -0.405438 -7.56323 22.7465 -9.52091 5.19273 -5.88564 -10.644 -14.816 
29.7864 79.6457 58.769 61.8673 -61.5127 55.5998 171.05 48.2566 97.0627 -94.6191 11.3185 3.78349 59.6867 6.68534 17.3351 58.1882 -1.3426 13.6805 172.843 24.9321 98.3452 -67.0879 -21.0046 1.92686 68.0401 -4.13909 1.97398 47.056 -2.79741 22.3512 0.600484 11.2203 -89.8423 4.42863 1.2638 0.298561 -7.24173 1.27571 0.242632 -29.7806 1.11566 0.664628 -9.76796 1.11565 0.664621 97.3679 -52.6589 -89.4173 24.8387 -9.48027 -26.8186 9.36212 7.10643 -55.0526 -16.3426 -0.0590097 -4.94729 -87.0611 -56.4854 83.8926 -15.4246 -6.72893 0.392417 0.0903284 27.926 -5.75796 8.89197 -0.17779 -5.28795 28.9995 -5.08685 7.71007 -7.70155 -7.57202 -10.1961 
34.0579 81.8221 69.2452 42.4175 -66.9879 31.7347 -169.188 62.4635 81.0028 -81.7179 16.2953 0.546844 61.3538 5.16141 11.8574 63.7053 -1.38967 13.1212 178.047 11.9172 89.1942 -52.4867 -25.1959 -2.94124 71.3353 -6.96029 0.996586 49.5091 -3.33175 20.9818 0.904902 10.9543 -89.0891 4.95287 2.18346 1.75057 -6.71721 2.25839 1.65275 -29.2523 1.55653 2.32571 -9.23968 1.55651 2.32571 98.7986 -42.9645 -87.899 22.3425 -7.72269 -46.6451 -3.91472 2.32463 -78.5965 -14.4636 0.010542 -5.39798 -89.6676 -52.5334 79.4738 -19.1189 0.519114 15.1774 -4.38482 29.4018 -5.22459 9.15802 -0.352425 -6.88454 32.2154 -4.45603 6.12674 -9.07541 -6.45768 -6.92604 
38.2577 82.3247 84.7287 40.6759 -63.3443 28.2326 -156.524 59.548 70.2977 -70.6789 17.208 -3.74917 57.9974 0.262127 4.63716 68.3477 -2.46561 8.49546 179.027 -2.85599 87.9896 -28.1874 -23.394 -3.45657 34.9406 16.2259 27.6697 4.21185 3.44975 8.92874 0.606259 10.0682 -88.7856 6.71384 1.72904 2.32415 -4.95787 1.82961 2.24584 -27.4799 0.950895 2.73608 -7.46723 0.950885 2.73606 99.49 -42.2482 -86.7778 14.6177 -16.2478 -43.4311 -10.8584 6.62433 -88.2273 -11.0379 -0.0158212 -5.21811 -89.8051 -53.9334 79.5584 -11.7645 1.90635 -1.19353 -8.80667 36.6202 -0.0163914 8.04197 -0.466789 -8.49689 21.4373 -6.47302 -0.395015 -6.82551 -6.05162 -2.44177 
41.2978 81.7281 101.599 47.3247 -64.0845 37.7443 -168.764 40.2991 82.0049 -65.3082 20.4441 -2.48672 69.2812 10.7427 11.5366 65.6493 -1.55114 12.2786 176.837 9.58196 95.5638 -72.7557 -19.565 -1.73111 38.0206 15.2278 11.4698 -2.7476 9.90355 -4.36909 0.36047 10.0682 -89.1354 6.72653 1.08834 1.66441 -4.94497 1.16054 1.61491 -27.4719 0.537914 1.91445 -7.45922 0.537915 1.91445 98.7117 -49.0608 -87.6276 19.1005 -25.9404 -21.2125 -17.1902 3.14042 -68.2409 -7.1526 0.01676 -6.55226 -88.2466 -54.7466 81.9362 -1.0475 0.0285531 -30.2829 -6.8467 28.7787 -4.05103 9.75902 -0.467299 -7.92248 21.9437 -5.97263 -1.74389 -9.38921 -5.03656 -3.45975 
42.7838 81.6572 117.849 62.7771 -58.6867 46.2535 -178.186 23.8449 84.7539 -53.5877 26.5008 0.26748 67.7292 9.58736 13.0015 73.4737 -0.89175 14.7423 172.156 41.0632 90.4026 -112.403 -17.9458 -3.27393 45.7514 9.8603 6.8285 14.5852 5.13432 -5.83678 -0.789895 10.0596 -88.7313 6.7556 -1.03644 2.54994 -4.91761 -0.923248 2.59304 -27.4408 -1.75474 2.12087 -7.42816 -1.75474 2.12085 100.192 -54.6348 -85.067 31.0211 -18.1718 8.28242 -18.8076 -15.1325 -47.785 -9.696 -0.21695 -2.52553 -87.2917 -46.7431 81.9551 -0.940776 -10.9519 -59.7665 6.21276 22.9341 -22.3484 11.4788 -0.705856 -9.36313 22.6708 -5.18974 2.31953 -9.4372 -5.35759 -8.35627 
45.3493 83.574 137.222 57.8866 -57.2153 49.3554 -177.609 -0.0149645 90.1541 -30.0279 26.0391 5.86771 54.0075 -3.71147 -7.7764 79.9233 -3.11393 8.3267 166.277 67.7823 99.2162 -105.72 -12.3835 -3.44335 54.818 4.48427 5.78824 47.546 -4.30657 2.86362 -1.19077 9.51739 -89.8562 7.85718 -2.31462 0.417662 -3.81169 -2.29398 0.519163 -26.3646 -2.33314 -0.297695 -6.35197 -2.33313 -0.297693 97.1032 -48.8732 -90.2124 40.3178 -11.2171 40.3408 -13.7655 -9.2107 -45.9592 -4.72415 -0.017187 -5.49466 -83.9516 -39.2646 86.2813 -13.2088 -17.6636 -62.9422 18.774 7.76503 -61.4835 13.5753 -0.988351 -10.8127 23.5413 -2.61514 1.12968 -12.242 -2.69357 -2.92708 
48.4475 87.3944 158.735 53.0772 -62.4311 48.9209 -178.588 -2.44405 96.0012 -36.4638 23.3363 7.77395 38.3246 -11.2082 -2.37918 56.2383 -2.63949 3.42477 165.933 63.6091 94.9519 -67.9378 -12.3712 2.48077 58.403 2.35927 1.39338 71.978 -8.67995 7.00295 -0.906344 10.0495 -90.7321 6.76024 -2.12283 -1.35758 -4.9096 -2.18053 -1.26281 -27.448 -1.61676 -1.93281 -7.43533 -1.61675 -1.93278 95.7621 -49.3789 -92.2252 34.61 -5.86818 36.4219 5.8413 7.55099 -42.0476 -4.22126 0.0369686 -7.14107 -83.717 -44.1468 87.2871 -1.38948 -2.46737 -38.459 16.7822 1.31653 -71.0405 10.3622 -0.585835 -8.80634 36.4186 -0.38796 -3.90299 -22.7897 0.503578 5.59824 
52.1674 86.0927 181.004 43.1444 -72.1658 43.0243 178.528 13.3871 96.2175 -86.0665 12.7759 4.44069 44.8833 -5.84695 6.89385 55.732 -2.83097 1.50206 162.165 44.8335 96.1298 -58.2008 -15.8885 8.92161 62.1841 0.0683214 0.568365 52.3499 -5.06934 5.99568 0.0402807 10.7417 -91.183 5.37964 -0.41096 -2.31437 -6.29336 -0.51239 -2.29405 -28.8115 0.30337 -2.33091 -8.79885 0.303368 -2.33092 97.8063 -52.6195 -88.7515 26.113 -7.32775 9.79616 9.04596 9.31787 -47.8277 -4.9629 0.0194754 -6.42337 -85.6565 -53.3271 85.4244 -7.55027 13.1707 -20.0095 5.92748 23.9091 -29.7908 6.79299 -0.601943 -10.6559 37.9597 0.110854 -7.21699 -21.3252 1.578 12.569 
